<?xml version="1.0" standalone="no"?>
<!DOCTYPE svg PUBLIC "-//W3C//DTD SVG 20010904//EN"
 "http://www.w3.org/TR/2001/REC-SVG-20010904/DTD/svg10.dtd">
<svg version="1.0" xmlns="http://www.w3.org/2000/svg"
 width="96.000000pt" height="96.000000pt" viewBox="0 0 96.000000 96.000000"
 preserveAspectRatio="xMidYMid meet">

<g transform="translate(0.000000,96.000000) scale(0.100000,-0.100000)"
fill="#000000" stroke="none">
<path d="M100 860 c-35 -35 -26 -66 36 -126 31 -30 60 -54 64 -54 4 0 33 24
64 54 62 60 71 91 36 126 -26 26 -48 25 -77 -2 l-23 -22 -20 22 c-26 27 -54
28 -80 2z"/>
<path d="M660 860 c-35 -35 -26 -66 36 -126 31 -30 60 -54 64 -54 4 0 33 24
64 54 62 60 71 91 36 126 -26 26 -48 25 -77 -2 l-23 -22 -20 22 c-26 27 -54
28 -80 2z"/>
<path d="M312 660 c-21 -13 -41 -38 -54 -67 -29 -65 -21 -120 28 -191 39 -56
166 -162 194 -162 29 0 155 105 193 161 50 72 58 127 29 192 -39 87 -123 112
-187 56 l-35 -31 -35 31 c-42 37 -85 40 -133 11z"/>
<path d="M100 260 c-35 -35 -26 -66 36 -126 31 -30 60 -54 64 -54 4 0 33 24
64 54 62 60 71 91 36 126 -26 26 -48 25 -77 -2 l-23 -22 -20 22 c-26 27 -54
28 -80 2z"/>
<path d="M660 260 c-35 -35 -26 -66 36 -126 31 -30 60 -54 64 -54 4 0 33 24
64 54 62 60 71 91 36 126 -26 26 -48 25 -77 -2 l-23 -22 -20 22 c-26 27 -54
28 -80 2z"/>
</g>
</svg>
