<?xml version="1.0" standalone="no"?>
<!DOCTYPE svg PUBLIC "-//W3C//DTD SVG 20010904//EN"
 "http://www.w3.org/TR/2001/REC-SVG-20010904/DTD/svg10.dtd">
<svg version="1.0" xmlns="http://www.w3.org/2000/svg"
 width="96.000000pt" height="96.000000pt" viewBox="0 0 96.000000 96.000000"
 preserveAspectRatio="xMidYMid meet">

<g transform="translate(0.000000,96.000000) scale(0.100000,-0.100000)"
fill="#000000" stroke="none">
<path d="M235 871 c-42 -19 -69 -60 -70 -107 0 -35 -3 -44 -18 -44 -10 0 -29
-11 -42 -25 -21 -20 -25 -34 -25 -80 l0 -55 400 0 400 0 0 55 c0 46 -4 60 -25
80 -13 14 -32 25 -42 25 -15 0 -18 9 -18 45 0 37 -6 51 -33 78 -28 28 -39 32
-85 32 -45 0 -60 -6 -105 -37 -70 -51 -113 -51 -182 -2 -53 38 -116 52 -155
35z m83 -85 c15 -8 38 -26 51 -40 l24 -26 -64 0 c-66 0 -89 10 -89 40 0 20 19
40 37 40 8 0 26 -6 41 -14z m396 -8 c21 -35 -4 -53 -80 -56 l-68 -3 19 22 c50
55 107 71 129 37z"/>
<path d="M120 325 c0 -195 0 -196 25 -220 l24 -25 311 0 311 0 24 25 c25 24
25 25 25 220 l0 195 -360 0 -360 0 0 -195z m330 100 c27 -14 33 -14 60 0 43
22 68 19 101 -14 50 -51 37 -90 -65 -191 l-66 -64 -66 64 c-102 101 -115 140
-65 191 33 33 58 36 101 14z"/>
</g>
</svg>
