<?xml version="1.0" standalone="no"?>
<!DOCTYPE svg PUBLIC "-//W3C//DTD SVG 20010904//EN"
 "http://www.w3.org/TR/2001/REC-SVG-20010904/DTD/svg10.dtd">
<svg version="1.0" xmlns="http://www.w3.org/2000/svg"
 width="96.000000pt" height="96.000000pt" viewBox="0 0 96.000000 96.000000"
 preserveAspectRatio="xMidYMid meet">

<g transform="translate(0.000000,96.000000) scale(0.100000,-0.100000)"
fill="#000000" stroke="none">
<path d="M243 862 c-128 -53 -233 -99 -233 -102 0 -3 34 -19 75 -35 l75 -30 0
-102 c0 -85 -3 -108 -20 -135 -11 -18 -20 -44 -20 -58 0 -32 33 -86 57 -94 10
-3 29 -26 42 -51 31 -59 89 -118 143 -147 60 -31 175 -32 234 -1 53 28 115 91
145 148 13 25 32 48 42 51 24 8 57 62 57 94 0 14 -9 40 -20 58 -17 27 -20 50
-20 135 l0 103 33 12 c18 7 36 12 40 12 4 0 7 -45 7 -100 l0 -100 40 0 41 0
-3 121 -3 121 -225 94 c-124 52 -232 96 -240 98 -8 3 -120 -39 -247 -92z m465
-314 c7 -7 12 -33 12 -58 0 -34 5 -48 20 -58 34 -21 20 -72 -20 -72 -10 0 -26
-20 -40 -49 -40 -87 -125 -151 -200 -151 -75 0 -160 64 -200 151 -14 29 -30
49 -40 49 -40 0 -54 51 -20 72 15 10 20 24 20 58 0 25 5 51 12 58 17 17 439
17 456 0z"/>
</g>
</svg>
