<?xml version="1.0" standalone="no"?>
<!DOCTYPE svg PUBLIC "-//W3C//DTD SVG 20010904//EN"
 "http://www.w3.org/TR/2001/REC-SVG-20010904/DTD/svg10.dtd">
<svg version="1.0" xmlns="http://www.w3.org/2000/svg"
 width="96.000000pt" height="96.000000pt" viewBox="0 0 96.000000 96.000000"
 preserveAspectRatio="xMidYMid meet">

<g transform="translate(0.000000,96.000000) scale(0.100000,-0.100000)"
fill="#000000" stroke="none">
<path d="M417 866 c-20 -7 -53 -26 -72 -40 -62 -48 -76 -83 -181 -448 -3 -10
-12 -18 -20 -18 -8 0 -26 -11 -39 -25 -23 -22 -25 -32 -25 -115 0 -83 2 -93
25 -115 l24 -25 351 0 351 0 24 25 c23 22 25 32 25 115 0 83 -2 93 -25 115
-13 14 -31 25 -38 25 -16 0 -133 126 -185 199 -18 24 -32 53 -32 63 0 31 27
73 55 86 38 17 48 15 35 -7 -32 -61 20 -141 91 -141 51 0 99 49 99 101 0 58
-61 107 -118 96 -23 -5 -33 0 -54 26 -60 76 -202 116 -291 83z m383 -646 l0
-60 -320 0 -320 0 0 60 0 60 320 0 320 0 0 -60z"/>
</g>
</svg>
