<?xml version="1.0" standalone="no"?>
<!DOCTYPE svg PUBLIC "-//W3C//DTD SVG 20010904//EN"
 "http://www.w3.org/TR/2001/REC-SVG-20010904/DTD/svg10.dtd">
<svg version="1.0" xmlns="http://www.w3.org/2000/svg"
 width="96.000000pt" height="96.000000pt" viewBox="0 0 96.000000 96.000000"
 preserveAspectRatio="xMidYMid meet">

<g transform="translate(0.000000,96.000000) scale(0.100000,-0.100000)"
fill="#000000" stroke="none">
<path d="M810 864 c-86 -23 -84 -22 -69 -40 10 -13 8 -19 -14 -41 l-25 -26 36
-18 c31 -17 38 -17 52 -4 14 13 18 13 32 -1 18 -18 16 -21 38 66 6 25 13 53
16 63 6 20 6 20 -66 1z"/>
<path d="M244 706 c-43 -19 -74 -67 -81 -124 -5 -42 -1 -58 23 -102 16 -29 48
-69 71 -90 41 -35 42 -38 25 -54 -10 -9 -34 -16 -53 -16 -29 0 -44 -10 -94
-60 l-59 -60 62 0 62 0 0 -59 0 -59 60 62 c45 48 60 70 60 92 0 24 21 50 115
144 63 63 115 122 115 132 0 9 -10 24 -22 32 -19 14 -20 16 -5 16 34 0 57 -20
57 -48 0 -21 -21 -49 -95 -122 -52 -52 -95 -97 -95 -100 0 -3 20 -23 45 -43
l44 -38 128 103 c159 128 197 183 189 267 -9 98 -68 146 -169 138 -65 -6 -101
-25 -125 -68 -20 -34 -28 -36 -37 -9 -3 11 -22 32 -40 46 -42 32 -133 42 -181
20z"/>
</g>
</svg>
