<?xml version="1.0" standalone="no"?>
<!DOCTYPE svg PUBLIC "-//W3C//DTD SVG 20010904//EN"
 "http://www.w3.org/TR/2001/REC-SVG-20010904/DTD/svg10.dtd">
<svg version="1.0" xmlns="http://www.w3.org/2000/svg"
 width="96.000000pt" height="96.000000pt" viewBox="0 0 96.000000 96.000000"
 preserveAspectRatio="xMidYMid meet">

<g transform="translate(0.000000,96.000000) scale(0.100000,-0.100000)"
fill="#000000" stroke="none">
<path d="M425 855 c-16 -15 -25 -36 -25 -55 0 -19 9 -40 25 -55 49 -50 135
-15 135 55 0 41 -39 80 -80 80 -19 0 -40 -9 -55 -25z"/>
<path d="M376 658 c-22 -20 -29 -45 -56 -198 -17 -96 -34 -185 -37 -197 -5
-21 -2 -23 36 -23 l41 0 0 -80 0 -80 40 0 40 0 0 80 0 80 40 0 40 0 0 -80 0
-80 40 0 40 0 0 80 0 80 41 0 c39 0 40 1 35 27 -4 16 -19 101 -36 190 -16 90
-34 172 -40 183 -17 31 -44 40 -124 40 -64 0 -79 -3 -100 -22z m91 -149 c8 -8
17 -7 32 3 16 9 26 10 39 2 31 -20 26 -51 -17 -96 l-40 -43 -36 35 c-20 19
-38 45 -42 57 -10 40 36 70 64 42z"/>
</g>
</svg>
