<?xml version="1.0" standalone="no"?>
<!DOCTYPE svg PUBLIC "-//W3C//DTD SVG 20010904//EN"
 "http://www.w3.org/TR/2001/REC-SVG-20010904/DTD/svg10.dtd">
<svg version="1.0" xmlns="http://www.w3.org/2000/svg"
 width="96.000000pt" height="96.000000pt" viewBox="0 0 96.000000 96.000000"
 preserveAspectRatio="xMidYMid meet">

<g transform="translate(0.000000,96.000000) scale(0.100000,-0.100000)"
fill="#000000" stroke="none">
<path d="M200 895 c-45 -78 -49 -117 -17 -149 54 -54 146 -13 134 60 -6 37
-63 144 -77 144 -5 0 -23 -25 -40 -55z"/>
<path d="M440 895 c-45 -78 -49 -117 -17 -149 54 -54 146 -13 134 60 -6 37
-63 144 -77 144 -5 0 -23 -25 -40 -55z"/>
<path d="M680 895 c-45 -78 -49 -117 -17 -149 54 -54 146 -13 134 60 -6 37
-63 144 -77 144 -5 0 -23 -25 -40 -55z"/>
<path d="M200 640 c0 -33 -6 -45 -37 -74 -34 -31 -37 -39 -41 -97 -4 -56 -1
-67 18 -84 14 -12 36 -20 61 -20 36 0 45 6 90 55 l49 55 49 -55 c45 -49 54
-55 91 -55 37 0 46 6 91 55 l49 55 49 -55 c45 -49 54 -55 90 -55 25 0 47 8 61
20 19 17 22 28 18 84 -4 58 -7 66 -41 97 -31 29 -37 41 -37 74 0 40 0 40 -40
40 l-40 0 0 -40 0 -40 -80 0 -80 0 0 40 0 40 -40 0 -40 0 0 -40 0 -40 -80 0
-80 0 0 40 0 40 -40 0 c-40 0 -40 0 -40 -40z"/>
<path d="M303 320 c-38 -34 -93 -47 -145 -33 l-38 10 0 -96 c0 -62 4 -101 12
-109 17 -17 679 -17 696 0 8 8 12 47 12 109 l0 96 -38 -10 c-53 -14 -106 -1
-147 35 l-35 30 -35 -30 c-61 -54 -149 -55 -209 -2 -19 17 -35 30 -37 30 -2 0
-18 -14 -36 -30z"/>
</g>
</svg>
