<?xml version="1.0" standalone="no"?>
<!DOCTYPE svg PUBLIC "-//W3C//DTD SVG 20010904//EN"
 "http://www.w3.org/TR/2001/REC-SVG-20010904/DTD/svg10.dtd">
<svg version="1.0" xmlns="http://www.w3.org/2000/svg"
 width="96.000000pt" height="96.000000pt" viewBox="0 0 96.000000 96.000000"
 preserveAspectRatio="xMidYMid meet">

<g transform="translate(0.000000,96.000000) scale(0.100000,-0.100000)"
fill="#000000" stroke="none">
<path d="M349 851 c-47 -47 -38 -83 39 -163 l46 -48 -57 0 c-96 0 -137 -36
-137 -119 0 -36 -2 -39 -35 -45 -67 -13 -125 -85 -125 -156 0 -17 9 -48 20
-70 14 -27 20 -59 20 -105 l0 -65 360 0 360 0 0 65 c0 46 6 78 20 105 11 22
20 53 20 70 0 71 -58 143 -125 156 -33 6 -35 9 -35 46 0 83 -41 118 -138 118
l-56 0 46 48 c77 80 86 116 39 163 -33 33 -58 36 -101 14 -27 -14 -33 -14 -60
0 -43 22 -68 19 -101 -14z m286 -311 c0 -13 -24 -15 -149 -18 -144 -2 -176 3
-161 27 4 8 55 11 158 9 127 -3 152 -5 152 -18z m140 -165 c69 -68 -19 -169
-108 -124 -12 6 -32 23 -44 37 l-22 27 -36 -35 c-31 -30 -43 -35 -85 -35 -42
0 -54 5 -85 35 l-35 34 -16 -22 c-55 -80 -184 -60 -184 28 0 19 9 40 25 55
l24 25 271 0 271 0 24 -25z"/>
</g>
</svg>
